HIERARCHY
ROOT Hips
{
	OFFSET	0.00	0.00	0.00
	CHANNELS 6 Xposition Yposition Zposition Zrotation Xrotation Yrotation
	JOINT LeftUpLeg
	{
		OFFSET	 0.126116	-0.014019	-0.065224
		CHANNELS 3 Zrotation Xrotation Yrotation
		JOINT LeftLeg
		{
			OFFSET	 0.000000	 0.000000	 0.569914
			CHANNELS 3 Zrotation Xrotation Yrotation
			JOINT LeftFoot
			{
				OFFSET	 0.000000	 0.000000	 0.544423
				CHANNELS 3 Zrotation Xrotation Yrotation
				JOINT LeftToeBase
				{
					OFFSET	 0.000000	 0.000000	 0.207117
					CHANNELS 3 Zrotation Xrotation Yrotation
					End Site
					{
						OFFSET	 0.000000	 0.000000	 0.207117
					}
				}
			}
		}
	}
	JOINT RightUpLeg
	{
		OFFSET	-0.124023	-0.008373	-0.065224
		CHANNELS 3 Zrotation Xrotation Yrotation
		JOINT RightLeg
		{
			OFFSET	 0.000000	 0.000000	 0.570047
			CHANNELS 3 Zrotation Xrotation Yrotation
			JOINT RightFoot
			{
				OFFSET	 0.000000	 0.000000	 0.544354
				CHANNELS 3 Zrotation Xrotation Yrotation
				JOINT RightToeBase
				{
					OFFSET	 0.000000	 0.000000	 0.207540
					CHANNELS 3 Zrotation Xrotation Yrotation
					End Site
					{
						OFFSET	 0.000000	 0.000000	 0.207540
					}
				}
			}
		}
	}
	JOINT Spine
	{
		OFFSET	 0.000184	-0.007763	 0.117403
		CHANNELS 3 Zrotation Xrotation Yrotation
		JOINT Spine1
		{
			OFFSET	 0.000000	 0.000000	 0.137269
			CHANNELS 3 Zrotation Xrotation Yrotation
			JOINT Spine2
			{
				OFFSET	 0.000000	 0.000000	 0.156879
				CHANNELS 3 Zrotation Xrotation Yrotation
				JOINT LeftShoulder
				{
					OFFSET	 0.080501	-0.002496	 0.160144
					CHANNELS 3 Zrotation Xrotation Yrotation
					JOINT LeftArm
					{
						OFFSET	 0.000000	 0.000000	 0.164363
						CHANNELS 3 Zrotation Xrotation Yrotation
						JOINT LeftForeArm
						{
							OFFSET	 0.000000	 0.000000	 0.364576
							CHANNELS 3 Zrotation Xrotation Yrotation
							JOINT LeftHand
							{
								OFFSET	 0.000000	 0.000000	 0.360812
								CHANNELS 3 Zrotation Xrotation Yrotation
								JOINT LeftHandIndex1
								{
									OFFSET	 0.000000	 0.000000	 0.086006
									CHANNELS 3 Zrotation Xrotation Yrotation
									JOINT LeftHandIndex2
									{
										OFFSET	 0.000000	 0.000000	 0.047236
										CHANNELS 3 Zrotation Xrotation Yrotation
										JOINT LeftHandIndex3
										{
											OFFSET	-0.004284	-0.000551	 0.038166
											CHANNELS 3 Zrotation Xrotation Yrotation
											End Site
											{
												OFFSET	-0.004284	-0.000551	 0.038166
											}
										}
									}
								}
							}
						}
					}
				}
				JOINT Neck
				{
					OFFSET	 0.000000	 0.000000	 0.176489
					CHANNELS 3 Zrotation Xrotation Yrotation
					JOINT Head
					{
						OFFSET	 0.000000	-0.001747	 0.077940
						CHANNELS 3 Zrotation Xrotation Yrotation
						End Site
						{
							OFFSET	 0.000000	-0.001747	 0.077940
						}
					}
				}
				JOINT RightShoulder
				{
					OFFSET	-0.080363	 0.000306	 0.159706
					CHANNELS 3 Zrotation Xrotation Yrotation
					JOINT RightArm
					{
						OFFSET	 0.000000	 0.000000	 0.164196
						CHANNELS 3 Zrotation Xrotation Yrotation
						JOINT RightForeArm
						{
							OFFSET	 0.000000	 0.000000	 0.365611
							CHANNELS 3 Zrotation Xrotation Yrotation
							JOINT RightHand
							{
								OFFSET	 0.000000	 0.000000	 0.360648
								CHANNELS 3 Zrotation Xrotation Yrotation
								JOINT RightHandIndex1
								{
									OFFSET	 0.000000	 0.000000	 0.069977
									CHANNELS 3 Zrotation Xrotation Yrotation
									JOINT RightHandIndex2
									{
										OFFSET	 0.000000	 0.000000	 0.052305
										CHANNELS 3 Zrotation Xrotation Yrotation
										JOINT RightHandIndex3
										{
											OFFSET	 0.009002	-0.000782	 0.042196
											CHANNELS 3 Zrotation Xrotation Yrotation
											End Site
											{
												OFFSET	 0.009002	-0.000782	 0.042196
											}
										}
									}
								}
							}
						}
					}
				}
			}
		}
	}
}
MOTION
Frames:    7
Frame Time: 0.03333334
-0.058603	-2.228076	 1.200163	 4.699698	-1.560792	-3.704843	-7.118710	-13.780010	-169.768600	 0.796845	-38.943400	 0.230282	 45.302200	 80.087530	-48.964870	-2.370293	 31.464950	-0.066528	 3.855181	-29.117130	-174.670600	 10.940480	-53.202410	 9.414310	 22.418530	 75.637840	-19.278100	 2.358467	 33.073930	 0.104944	 1.850038	 8.553942	 0.870436	 1.911343	 3.951478	 3.431303	-9.295513	-3.806282	-4.516273	-93.878780	 58.953370	 175.516700	 25.919960	 46.283260	-23.211330	-1.359552	-2.332562	-21.217250	-1.835819	-26.737600	-7.651164	-4.869197	 19.245590	-2.786495	-3.886364	 21.410850	 2.207666	-4.808265	 5.545484	 0.146968	-0.093239	-5.054429	 0.175304	-11.146000	 1.063413	 1.936063	 89.797620	 61.625670	-179.962900	-19.869760	 52.073020	 7.512508	-1.298133	-3.256588	 16.811040	-4.687437	-12.384740	 0.652690	 6.297312	 25.239950	-0.552798	 1.834850	 45.106830	-6.947915	 0.473426	 24.507520	 3.595141
-0.059604	-2.246642	 1.200169	 5.989031	-0.585466	-3.741694	-8.421556	-13.862590	-169.911700	 1.333853	-38.616740	 0.612369	 43.833470	 80.033250	-47.942500	-2.368066	 31.834230	-0.074903	 0.715568	-31.501510	-174.293400	 12.270740	-50.487740	 10.121750	 71.343480	 81.818690	-70.423260	 2.359059	 32.987740	 0.102939	 1.118911	 8.018036	 0.621755	 1.966112	 3.107811	 3.843491	-9.647200	-3.354445	-4.618435	-94.172210	 59.020160	 174.882000	 26.427070	 44.875850	-23.682970	-2.109141	-2.281725	-23.485300	-1.504766	-27.200320	-9.280868	-4.862175	 19.434740	-2.800920	-3.870946	 21.607970	 2.191998	-4.803016	 5.607308	 0.143349	-0.025908	-5.114480	 0.250000	-11.300300	 1.206372	 1.718377	 89.691140	 61.756150	 179.782200	-19.043140	 52.672120	 6.130601	-2.064822	-3.445011	 16.573300	-5.148967	-11.564170	 0.248650	 6.270558	 23.145360	-0.557386	 2.087370	 43.015040	-7.172198	 0.884605	 22.682120	 3.390729
-0.059950	-2.272147	 1.199569	 6.545196	 0.396986	-4.196837	-8.835519	-13.262090	-169.596200	 1.620442	-37.788590	 0.776872	 45.106060	 80.295480	-49.476860	-2.363491	 32.559090	-0.091482	 0.320865	-33.958140	-173.183200	 12.856700	-46.610710	 9.984593	 108.292300	 77.772700	-109.662400	 2.359202	 32.966760	 0.102448	 0.883063	 7.245297	 0.813117	 2.053616	 2.985357	 4.111398	-9.864487	-3.103863	-4.692289	-94.414200	 58.919020	 174.381800	 25.981600	 43.082210	-23.907520	-3.209759	-2.070863	-26.559920	-1.354399	-28.092540	-8.591783	-4.839317	 19.950340	-2.821230	-3.841934	 21.976000	 2.162526	-4.784088	 5.829983	 0.130272	 0.004027	-5.214958	 0.326992	-11.452450	 1.344609	 1.677791	 89.516940	 61.963080	 179.360500	-17.954380	 53.346430	 4.680202	-3.739201	-3.858076	 16.139090	-6.319292	-10.672730	-1.170536	 6.223670	 20.463330	-0.650724	 2.348885	 40.661020	-7.401396	 1.469526	 19.985970	 3.119111
-0.060888	-2.310598	 1.197054	 6.881578	 0.699319	-4.656131	-9.179829	-11.125340	-169.190100	 1.892852	-36.712680	 0.920838	 42.666230	 79.807750	-47.245560	-2.343413	 35.313220	-0.156425	 2.146448	-35.365890	-171.428800	 12.403600	-40.495920	 8.634630	 121.689300	 70.514180	-124.451100	 2.339150	 35.625150	 0.165675	 0.369175	 7.014943	 1.083488	 2.154247	 3.389313	 4.251016	-9.904476	-3.167678	-4.724491	-94.532830	 58.889710	 174.134300	 24.021480	 41.304270	-24.023070	-3.804397	-2.053609	-30.081730	-1.846223	-28.964270	-8.446998	-4.838303	 20.441390	-2.961307	-3.797579	 22.532000	 2.117484	-4.743125	 6.309448	 0.101829	 0.084072	-5.367369	 0.353070	-11.386740	 1.476951	 1.410833	 89.376640	 61.992940	 179.021200	-16.108290	 54.023220	 1.897374	-5.792495	-4.530562	 16.271600	-7.311052	-10.486420	-3.410775	 6.170076	 17.017140	-0.704079	 2.787575	 36.223670	-7.777501	 2.193735	 16.491920	 2.816266
-0.064282	-2.354296	 1.192517	 7.259547	 0.558454	-4.389090	-9.887113	-8.382106	-169.564600	 2.432547	-36.109650	 1.226059	 32.541950	 77.483260	-37.304600	-2.275528	 41.861760	-0.326721	 2.926371	-35.552590	-170.802200	 10.728430	-33.137080	 6.338451	 93.147050	 74.052120	-95.567460	 2.338918	 35.652340	 0.166339	-0.541556	 7.059308	 0.865165	 2.251885	 4.074824	 4.191792	-9.858291	-3.479668	-4.772915	-94.513340	 59.218870	 174.121100	 21.752150	 40.095510	-24.853420	-3.959892	-2.138891	-32.255040	-2.936171	-30.475480	-9.420045	-4.878793	 20.612150	-3.247959	-3.763820	 22.949620	 2.083202	-4.684432	 6.990918	 0.060766	 0.187927	-5.481009	 0.275299	-11.096300	 1.609766	 1.202648	 89.355770	 61.639200	 178.984000	-14.544740	 54.224730	-1.364248	-7.216317	-5.261119	 17.131130	-7.874866	-11.092310	-5.005498	 6.195195	 13.871230	-0.389265	 3.029143	 33.484630	-7.979222	 2.803166	 13.426830	 2.592221
-0.071523	-2.417785	 1.183898	 8.266038	-0.395566	-3.031108	-9.876956	-3.337445	-171.445300	 0.320000	-35.578400	-0.019038	 18.378870	 68.793010	-20.404790	-2.012769	 54.802060	-0.777784	 5.186678	-34.779530	-170.485400	 6.358374	-24.841830	 3.002381	 20.877950	 69.249820	-17.977830	 2.335928	 36.006020	 0.174999	-2.083540	 7.267152	-0.446571	 2.218656	 6.083554	 4.096229	-9.862319	-4.106500	-5.052640	-94.408810	 59.152340	 174.356200	 19.441160	 38.003600	-26.835980	-4.468680	-1.935412	-33.913890	-3.371631	-30.030830	-9.184608	-4.895818	 20.864560	-3.430402	-3.739507	 23.247640	 2.058524	-4.588115	 8.094502	-0.007370	 0.339641	-5.431089	 0.273645	-10.687050	 1.939564	 1.713319	 89.255390	 61.410740	 178.755000	-13.268860	 54.164870	-3.956979	-8.241106	-5.623102	 17.173350	-8.468204	-12.031410	-5.157404	 6.322505	 10.443730	 0.289374	 3.260823	 30.636920	-8.168376	 3.352895	 10.573880	 2.415866
-0.079610	-2.477308	 1.172505	 10.123250	-1.350228	-1.770444	-10.115120	 1.425929	-173.548500	 1.036083	-35.055270	 0.392516	 9.341091	 52.372160	-9.757483	-1.030571	 70.899890	-1.976674	 5.540070	-37.102310	-170.258300	 7.719093	-23.259350	 3.368280	 4.737793	 52.880550	-2.103463	 2.345909	 34.789140	 0.145448	-3.728600	 7.470396	-1.303309	 1.797253	 8.081693	 3.209608	-9.987863	-4.677669	-4.912966	-94.270430	 59.251390	 174.637200	 18.438080	 36.107710	-28.942060	-4.401124	-2.125778	-35.808910	-2.910579	-28.131190	-9.431164	-4.831143	 21.231190	-3.170686	-3.685951	 23.895720	 2.004164	-4.511698	 8.957153	-0.062086	 0.405184	-5.334507	 0.252334	-10.451090	 2.442891	 1.973372	 89.040020	 60.968560	 178.272800	-12.274890	 53.632210	-5.974435	-7.495883	-5.611156	 17.895580	-7.553911	-12.811670	-3.531376	 6.364953	 8.612876	 0.486540	 3.389443	 28.955810	-8.271328	 3.635541	 9.077913	 2.335129
